<?xml version="1.0" encoding="UTF-8"?>
<!-- Do not edit this file with editors other than draw.io -->
<!DOCTYPE svg PUBLIC "-//W3C//DTD SVG 1.1//EN" "http://www.w3.org/Graphics/SVG/1.1/DTD/svg11.dtd">
<svg xmlns="http://www.w3.org/2000/svg" style="background: transparent; background-color: transparent; color-scheme: light dark;" xmlns:xlink="http://www.w3.org/1999/xlink" version="1.1" width="351px" height="351px" viewBox="0 0 351 351" content="&lt;mxfile host=&quot;app.diagrams.net&quot; agent=&quot;Mozilla/5.0 (Windows NT 10.0; Win64; x64) AppleWebKit/537.36 (KHTML, like Gecko) Chrome/144.0.0.0 Safari/537.36&quot; version=&quot;29.3.8&quot;&gt;&#10;  &lt;diagram name=&quot;Page-1&quot; id=&quot;5UeaPApEdJqZTrkHQCsb&quot;&gt;&#10;    &lt;mxGraphModel dx=&quot;872&quot; dy=&quot;431&quot; grid=&quot;1&quot; gridSize=&quot;10&quot; guides=&quot;1&quot; tooltips=&quot;1&quot; connect=&quot;1&quot; arrows=&quot;1&quot; fold=&quot;1&quot; page=&quot;1&quot; pageScale=&quot;1&quot; pageWidth=&quot;850&quot; pageHeight=&quot;1100&quot; math=&quot;0&quot; shadow=&quot;0&quot;&gt;&#10;      &lt;root&gt;&#10;        &lt;mxCell id=&quot;0&quot; /&gt;&#10;        &lt;mxCell id=&quot;1&quot; parent=&quot;0&quot; /&gt;&#10;        &lt;mxCell id=&quot;A9q7MbFGzx6b18oNapXQ-4&quot; parent=&quot;1&quot; style=&quot;verticalLabelPosition=bottom;verticalAlign=top;html=1;shape=mxgraph.basic.donut;dx=25;strokeColor=none;fillColor=light-dark(#FFFFFF,#000000);miterlimit=4;&quot; value=&quot;&quot; vertex=&quot;1&quot;&gt;&#10;          &lt;mxGeometry height=&quot;280&quot; width=&quot;280&quot; x=&quot;160&quot; y=&quot;80&quot; as=&quot;geometry&quot; /&gt;&#10;        &lt;/mxCell&gt;&#10;        &lt;mxCell id=&quot;A9q7MbFGzx6b18oNapXQ-5&quot; parent=&quot;1&quot; style=&quot;rounded=1;whiteSpace=wrap;html=1;rotation=45;strokeColor=none;fillColor=light-dark(#FFFFFF,#000000);&quot; value=&quot;&quot; vertex=&quot;1&quot;&gt;&#10;          &lt;mxGeometry height=&quot;60&quot; width=&quot;140&quot; x=&quot;370&quot; y=&quot;330&quot; as=&quot;geometry&quot; /&gt;&#10;        &lt;/mxCell&gt;&#10;      &lt;/root&gt;&#10;    &lt;/mxGraphModel&gt;&#10;  &lt;/diagram&gt;&#10;&lt;/mxfile&gt;&#10;"><defs/><g><g data-cell-id="0"><g data-cell-id="1"><g data-cell-id="A9q7MbFGzx6b18oNapXQ-4"><g transform="translate(0.5,0.5)"><path d="M 0 140 C 0 62.68 62.68 0 140 0 C 177.13 0 212.74 14.75 238.99 41.01 C 265.25 67.26 280 102.87 280 140 C 280 177.13 265.25 212.74 238.99 238.99 C 212.74 265.25 177.13 280 140 280 C 102.87 280 67.26 265.25 41.01 238.99 C 14.75 212.74 0 177.13 0 140 Z M 140 25 C 76.49 25 25 76.49 25 140 C 25 203.51 76.49 255 140 255 C 203.51 255 255 203.51 255 140 C 255 76.49 203.51 25 140 25 Z" fill="#ffffff" stroke="none" pointer-events="all" style="fill: light-dark(rgb(255, 255, 255), rgb(0, 0, 0));"/></g></g><g data-cell-id="A9q7MbFGzx6b18oNapXQ-5"><g transform="translate(0.5,0.5)"><rect x="210" y="250" width="140" height="60" rx="9" ry="9" fill="#ffffff" stroke="none" transform="rotate(45,280,280)" pointer-events="all" style="fill: light-dark(rgb(255, 255, 255), rgb(0, 0, 0));"/></g></g></g></g></g></svg>